<svg xmlns="http://www.w3.org/2000/svg" width="1920" height="800" viewBox="0 0 1920 800">
  <defs>
    <linearGradient id="grad1" x1="0%" y1="0%" x2="100%" y2="0%">
      <stop offset="0%" style="stop-color:#007bff;stop-opacity:1" />
      <stop offset="100%" style="stop-color:#0056b3;stop-opacity:1" />
    </linearGradient>
  </defs>
  <rect width="1920" height="800" fill="url(#grad1)" />
  <text x="960" y="350" font-family="Arial" font-size="80" font-weight="bold" fill="white" text-anchor="middle">LOGISTICS SERVICES</text>
  <text x="960" y="450" font-family="Arial" font-size="40" fill="white" text-anchor="middle">Fast, Reliable, Worldwide Delivery</text>
  <rect x="810" y="500" width="300" height="60" rx="30" ry="30" fill="white" />
  <text x="960" y="540" font-family="Arial" font-size="24" fill="#007bff" text-anchor="middle">LEARN MORE</text>
  
  <!-- Simple truck icon -->
  <g transform="translate(300,400) scale(0.5)">
    <rect x="0" y="0" width="400" height="200" rx="20" ry="20" fill="white" opacity="0.8" />
    <rect x="400" y="50" width="200" height="150" rx="10" ry="10" fill="white" opacity="0.8" />
    <circle cx="150" cy="250" r="60" fill="#333" />
    <circle cx="150" cy="250" r="30" fill="white" />
    <circle cx="500" cy="250" r="60" fill="#333" />
    <circle cx="500" cy="250" r="30" fill="white" />
  </g>
  
  <!-- Simple ship icon -->
  <g transform="translate(1400,450) scale(0.5)">
    <path d="M0,100 L100,0 L400,0 L500,100 L500,200 L0,200 Z" fill="white" opacity="0.8" />
    <rect x="200" y="-100" width="50" height="100" fill="white" opacity="0.8" />
    <rect x="100" y="200" width="300" height="20" fill="#333" />
  </g>
</svg> 